/* XPM */
static char *result[] = {
/* columns rows colors chars-per-pixel */
"32 32 115 2 ",
"   c #806012",
".  c #91721C",
"X  c #AD8217",
"o  c #B28313",
"O  c #BF9B2E",
"+  c #DCA118",
"@  c #E0A81E",
"#  c #E8AD1E",
"$  c #F3B21A",
"%  c #C09626",
"&  c #C29E2D",
"*  c #D1A022",
"=  c #D9A624",
"-  c #D4A72D",
";  c #DEAD2A",
":  c #D4AB33",
">  c #D6AE32",
",  c #D6B032",
"<  c #DEB534",
"1  c #E6B129",
"2  c #FCBD21",
"3  c #EBBF37",
"4  c #ECBF37",
"5  c #FFC020",
"6  c #FFC122",
"7  c #FFC222",
"8  c #FFC324",
"9  c #FDC027",
"0  c #FFC528",
"q  c #FFC729",
"w  c #FFC72A",
"e  c #FFC72B",
"r  c #FFC829",
"t  c #FFC92D",
"y  c #FFC92E",
"u  c #FFCA2E",
"i  c #FFCA2F",
"p  c #E8C33F",
"a  c #F7C232",
"s  c #FFCC32",
"d  c #FFCE33",
"f  c #F0C23A",
"g  c #F1C638",
"h  c #F5C939",
"j  c #F7C93A",
"k  c #FCCB3B",
"l  c #FACC39",
"z  c #FDCF3A",
"x  c #FBCC3C",
"c  c #FFCE3C",
"v  c #FFD039",
"b  c #FFD23B",
"n  c #FFD13D",
"m  c #FFD23C",
"M  c #FFD33C",
"N  c #FFD43C",
"B  c #FFD53C",
"V  c #FFD43D",
"C  c #FFD53D",
"Z  c #FFD43E",
"A  c #FFD53E",
"S  c #FFD63E",
"D  c #FFD63F",
"F  c #AB9743",
"G  c #DEBE48",
"H  c #C8B95E",
"J  c #C0B461",
"K  c #DBC45C",
"L  c #FBD040",
"P  c #FFD542",
"I  c #FDD445",
"U  c #FFD746",
"Y  c #FFD647",
"T  c #FCD74F",
"R  c #E0C75A",
"E  c #FED950",
"W  c #FBD957",
"Q  c #FEDB57",
"!  c #F6D75A",
"~  c #F7D95F",
"^  c #FEDB58",
"/  c #F9D95D",
"(  c #FDDE5C",
")  c #DDD77D",
"_  c #E1CE67",
"`  c #EED869",
"'  c #F0D864",
"]  c #F4DA66",
"[  c #FADE64",
"{  c #FCE064",
"}  c #F7E26F",
"|  c #FBE169",
" . c #FAE36E",
".. c #FAE36F",
"X. c #F2E277",
"o. c #FAE571",
"O. c #F8E779",
"+. c #ECE585",
"@. c #F0E782",
"#. c #F1E783",
"$. c #F5E982",
"%. c #F5EA84",
"&. c #F5EB85",
"*. c #F5EB86",
"=. c #F5EC85",
"-. c #F5EC87",
";. c #F3EC8A",
":. c #F4EC88",
">. c #F5EC89",
",. c #F5ED89",
"<. c #F4EE8C",
"1. c #F1F095",
"2. c #F1F195",
"3. c #F1F297",
"4. c None",
/* pixels */
"4.4.4.4.4.4.4.4.4.4.4.4.4.4.4.4.4.4.4.4.4.4.4.4.4.4.4.4.4.4.4.4.",
"4.4.4.4.4.4.4.4.4.4.4.4.4.4.4.4.4.4.4.4.4.4.4.4.4.4.4.4.4.4.4.4.",
"4.4.4.4.4.4.4.4.4.4.4.4.4.4.3.1.4.4.4.4.4.4.4.4.4.4.4.4.4.4.4.4.",
"4.4.4.4.4.4.4.4.4.4.4.4.4.4.@.=.*.%.4.4.4.4.4.4.4.4.4.4.4.4.4.4.",
"4.4.4.4.4.4.4.4.4.4.4.4.4.4.4.4.H } o.` 4.4.4.4.4.4.4.4.4.4.4.4.",
"4.4.4.4.4.4.4.4.4.4.4.4.4.4.4.4.4.4.! ( 4.4.4.4.4.4.4.4.4.4.4.4.",
"4.4.4.4.4.4.4.4.4.4.4.4.4.4.-.&.4.4.4.Y I 4.4.4.4.4.4.4.4.4.4.4.",
"4.4.4.4.4.4.4.4.4.4.4.4.4.4.K [ { 4.4.g N , 4.4.4.4.4.4.4.4.4.4.",
"4.4.4.4.4.4.4.4.4.4.4.4.4.4.4.4.P L 4.4.B 3 4.4.4.4.4.4.4.4.4.4.",
"4.4.4.4.4.4.4.4.4.4.4.4.4.4.4.4.l V 4.4.N j 4.4.4.4.4.4.4.4.4.4.",
"4.4.4.4.4.4.4.4.4.4.4.4.4.4.4.4.n S 4.4.A x 4.4.4.4.4.4.4.4.4.4.",
"4.4.4.4.4.4.4.4.4.4.4.4.4.4.4.4.b M 4.4.D f 4.4.4.4.4.4.4.4.4.4.",
"4.4.4.4.4.4.4.4.4.4.4.4.4.4.4.0 q = 4.4.v - 4.4.4.4.4.4.4.4.4.4.",
"4.4.4.4.4.4.4.4.4.4.4.#.) 4.2.$.~ 4.4.e t 4.4.4.4.4.4.4.4.4.4.4.",
"4.4.4.4.4.4.4.4.4.4.Q G F 4.+.,.>.:.] 8 @ 4.4.4.4.4.4.4.4.4.4.4.",
"4.4.4.4.4.4.4.4.4.4.< > 4.4.4.4.J X.O./ 4.4.4.4.4.4.4.4.4.4.4.4.",
"4.4.4.4.4.4.4.4.4.4.4 O 4.4.4.4.4.4.' | R 4.4.4.4.4.4.4.4.4.4.4.",
"4.4.4.4.4.4.4.4.4.4.a 1 ; 4.<.;.4.4.4.W ^ 4.4.4.4.4.4.4.4.4.4.4.",
"4.4.4.4.4.4.4.4.4.4.4.4.4.4._ .. .4.4.4.U p 4.4.4.4.4.4.4.4.4.4.",
"4.4.4.4.4.4.4.4.4.4.4.4.4.4.4.4.E T 4.4.N z 4.4.4.4.4.4.4.4.4.4.",
"4.4.4.4.4.4.4.4.4.4.4.4.4.4.4.4.h N 4.4.b B 4.4.4.4.4.4.4.4.4.4.",
"4.4.4.4.4.4.4.4.4.4.4.4.4.4.4.4.4.B & 4.m B 4.4.4.4.4.4.4.4.4.4.",
"4.4.4.4.4.4.4.4.4.4.4.4.4.4.4.4.A A 4.4.V C 4.4.4.4.4.4.4.4.4.4.",
"4.4.4.4.4.4.4.4.4.4.4.4.4.4.4.4.Z k 4.4.S c 4.4.4.4.4.4.4.4.4.4.",
"4.4.4.4.4.4.4.4.4.4.4.4.4.4.u i y . 4.4.D : 4.4.4.4.4.4.4.4.4.4.",
"4.4.4.4.4.4.4.4.4.4.4.4.4.4.5 #   4.4.M m 4.4.4.4.4.4.4.4.4.4.4.",
"4.4.4.4.4.4.4.4.4.4.4.4.4.4.4.4.4.4.s d % 4.4.4.4.4.4.4.4.4.4.4.",
"4.4.4.4.4.4.4.4.4.4.4.4.4.4.4.4.9 w r * 4.4.4.4.4.4.4.4.4.4.4.4.",
"4.4.4.4.4.4.4.4.4.4.4.4.4.4.7 7 6 2 X 4.4.4.4.4.4.4.4.4.4.4.4.4.",
"4.4.4.4.4.4.4.4.4.4.4.4.4.4.$ + o 4.4.4.4.4.4.4.4.4.4.4.4.4.4.4.",
"4.4.4.4.4.4.4.4.4.4.4.4.4.4.4.4.4.4.4.4.4.4.4.4.4.4.4.4.4.4.4.4.",
"4.4.4.4.4.4.4.4.4.4.4.4.4.4.4.4.4.4.4.4.4.4.4.4.4.4.4.4.4.4.4.4."
};
